# 3ds Max Wavefront OBJ Exporter v0.97b - (c)2007 guruware
# 创建的文件:29.03.2017 23:19:28

mtllib yuanzu.mtl

#
# object Cylinder001
#

v  0.000 0.000 0.000
v  122.959 -0.000 -44.753
v  130.850 0.000 0.000
v  100.237 -0.000 -84.109
v  65.425 -0.000 -113.319
v  22.722 -0.000 -128.862
v  -22.722 -0.000 -128.862
v  -65.425 -0.000 -113.319
v  -100.237 -0.000 -84.109
v  -122.959 -0.000 -44.753
v  -130.850 -0.000 -0.000
v  -122.959 0.000 44.753
v  -100.237 0.000 84.109
v  -65.425 0.000 113.319
v  -22.722 0.000 128.862
v  22.722 0.000 128.862
v  65.425 0.000 113.319
v  100.237 0.000 84.109
v  122.959 0.000 44.753
v  122.959 77.578 -44.753
v  130.850 77.578 -0.000
v  100.237 77.578 -84.109
v  65.425 77.578 -113.319
v  22.722 77.578 -128.862
v  -22.722 77.578 -128.862
v  -65.425 77.578 -113.319
v  -100.237 77.578 -84.109
v  -122.959 77.578 -44.753
v  -130.850 77.578 -0.000
v  -122.959 77.578 44.753
v  -100.237 77.578 84.109
v  -65.425 77.578 113.319
v  -22.722 77.578 128.862
v  22.722 77.578 128.862
v  65.425 77.578 113.319
v  100.237 77.578 84.109
v  122.959 77.578 44.753
v  122.959 155.156 -44.753
v  130.850 155.156 -0.000
v  100.237 155.156 -84.109
v  65.425 155.156 -113.319
v  22.722 155.156 -128.862
v  -22.722 155.156 -128.862
v  -65.425 155.156 -113.319
v  -100.237 155.156 -84.109
v  -122.959 155.156 -44.753
v  -130.850 155.156 -0.000
v  -122.959 155.156 44.753
v  -100.237 155.156 84.109
v  -65.425 155.156 113.319
v  -22.722 155.156 128.862
v  22.722 155.156 128.862
v  65.425 155.156 113.319
v  100.237 155.156 84.109
v  122.959 155.156 44.753
v  122.959 232.734 -44.753
v  130.850 232.734 -0.000
v  100.237 232.734 -84.109
v  65.425 232.734 -113.319
v  22.722 232.734 -128.862
v  -22.722 232.734 -128.862
v  -65.425 232.734 -113.319
v  -100.237 232.734 -84.109
v  -122.959 232.734 -44.753
v  -130.850 232.734 -0.000
v  -122.959 232.734 44.753
v  -100.237 232.734 84.109
v  -65.425 232.734 113.319
v  -22.722 232.734 128.862
v  22.722 232.734 128.862
v  65.425 232.734 113.319
v  100.237 232.734 84.109
v  122.959 232.734 44.753
v  122.959 310.312 -44.753
v  130.850 310.312 -0.000
v  100.237 310.312 -84.109
v  65.425 310.312 -113.319
v  22.722 310.312 -128.862
v  -22.722 310.312 -128.862
v  -65.425 310.312 -113.319
v  -100.237 310.312 -84.109
v  -122.959 310.312 -44.753
v  -130.850 310.312 -0.000
v  -122.959 310.312 44.753
v  -100.237 310.312 84.109
v  -65.425 310.312 113.319
v  -22.722 310.312 128.862
v  22.722 310.312 128.862
v  65.425 310.312 113.319
v  100.237 310.312 84.109
v  122.959 310.312 44.753
v  122.959 387.890 -44.753
v  130.850 387.890 -0.000
v  100.237 387.890 -84.109
v  65.425 387.890 -113.319
v  22.722 387.890 -128.862
v  -22.722 387.890 -128.862
v  -65.425 387.890 -113.319
v  -100.237 387.890 -84.109
v  -122.959 387.890 -44.753
v  -130.850 387.890 -0.000
v  -122.959 387.890 44.753
v  -100.237 387.890 84.109
v  -65.425 387.890 113.319
v  -22.722 387.890 128.862
v  22.722 387.890 128.862
v  65.425 387.890 113.319
v  100.237 387.890 84.109
v  122.959 387.890 44.753
v  0.000 387.890 -0.000
# 110 vertices

vn 0.000 -1.000 0.000
vn 1.000 0.000 0.000
vn 0.940 -0.000 -0.342
vn 0.766 -0.000 -0.643
vn 0.500 -0.000 -0.866
vn 0.174 -0.000 -0.985
vn -0.174 -0.000 -0.985
vn -0.500 -0.000 -0.866
vn -0.766 -0.000 -0.643
vn -0.940 -0.000 -0.342
vn -1.000 -0.000 -0.000
vn -0.940 0.000 0.342
vn -0.766 0.000 0.643
vn -0.500 0.000 0.866
vn -0.174 0.000 0.985
vn 0.174 0.000 0.985
vn 0.500 0.000 0.866
vn 0.766 0.000 0.643
vn 0.940 0.000 0.342
vn 0.000 1.000 -0.000
# 20 vertex normals

g Cylinder001
usemtl wire_228184153
s 1
f 1//1 2//1 3//1 
f 1//1 4//1 2//1 
f 1//1 5//1 4//1 
f 1//1 6//1 5//1 
f 1//1 7//1 6//1 
f 1//1 8//1 7//1 
f 1//1 9//1 8//1 
f 1//1 10//1 9//1 
f 1//1 11//1 10//1 
f 1//1 12//1 11//1 
f 1//1 13//1 12//1 
f 1//1 14//1 13//1 
f 1//1 15//1 14//1 
f 1//1 16//1 15//1 
f 1//1 17//1 16//1 
f 1//1 18//1 17//1 
f 1//1 19//1 18//1 
f 1//1 3//1 19//1 
s 8
f 3//2 20//3 21//2 
f 3//2 2//3 20//3 
f 2//3 22//4 20//3 
f 2//3 4//4 22//4 
f 4//4 23//5 22//4 
f 4//4 5//5 23//5 
f 5//5 24//6 23//5 
f 5//5 6//6 24//6 
f 6//6 25//7 24//6 
f 6//6 7//7 25//7 
f 7//7 26//8 25//7 
f 7//7 8//8 26//8 
f 8//8 27//9 26//8 
f 8//8 9//9 27//9 
f 9//9 28//10 27//9 
f 9//9 10//10 28//10 
f 10//10 29//11 28//10 
f 10//10 11//11 29//11 
f 11//11 30//12 29//11 
f 11//11 12//12 30//12 
f 12//12 31//13 30//12 
f 12//12 13//13 31//13 
f 13//13 32//14 31//13 
f 13//13 14//14 32//14 
f 14//14 33//15 32//14 
f 14//14 15//15 33//15 
f 15//15 34//16 33//15 
f 15//15 16//16 34//16 
f 16//16 35//17 34//16 
f 16//16 17//17 35//17 
f 17//17 36//18 35//17 
f 17//17 18//18 36//18 
f 18//18 37//19 36//18 
f 18//18 19//19 37//19 
f 19//19 21//2 37//19 
f 19//19 3//2 21//2 
f 21//2 38//3 39//2 
f 21//2 20//3 38//3 
f 20//3 40//4 38//3 
f 20//3 22//4 40//4 
f 22//4 41//5 40//4 
f 22//4 23//5 41//5 
f 23//5 42//6 41//5 
f 23//5 24//6 42//6 
f 24//6 43//7 42//6 
f 24//6 25//7 43//7 
f 25//7 44//8 43//7 
f 25//7 26//8 44//8 
f 26//8 45//9 44//8 
f 26//8 27//9 45//9 
f 27//9 46//10 45//9 
f 27//9 28//10 46//10 
f 28//10 47//11 46//10 
f 28//10 29//11 47//11 
f 29//11 48//12 47//11 
f 29//11 30//12 48//12 
f 30//12 49//13 48//12 
f 30//12 31//13 49//13 
f 31//13 50//14 49//13 
f 31//13 32//14 50//14 
f 32//14 51//15 50//14 
f 32//14 33//15 51//15 
f 33//15 52//16 51//15 
f 33//15 34//16 52//16 
f 34//16 53//17 52//16 
f 34//16 35//17 53//17 
f 35//17 54//18 53//17 
f 35//17 36//18 54//18 
f 36//18 55//19 54//18 
f 36//18 37//19 55//19 
f 37//19 39//2 55//19 
f 37//19 21//2 39//2 
f 39//2 56//3 57//2 
f 39//2 38//3 56//3 
f 38//3 58//4 56//3 
f 38//3 40//4 58//4 
f 40//4 59//5 58//4 
f 40//4 41//5 59//5 
f 41//5 60//6 59//5 
f 41//5 42//6 60//6 
f 42//6 61//7 60//6 
f 42//6 43//7 61//7 
f 43//7 62//8 61//7 
f 43//7 44//8 62//8 
f 44//8 63//9 62//8 
f 44//8 45//9 63//9 
f 45//9 64//10 63//9 
f 45//9 46//10 64//10 
f 46//10 65//11 64//10 
f 46//10 47//11 65//11 
f 47//11 66//12 65//11 
f 47//11 48//12 66//12 
f 48//12 67//13 66//12 
f 48//12 49//13 67//13 
f 49//13 68//14 67//13 
f 49//13 50//14 68//14 
f 50//14 69//15 68//14 
f 50//14 51//15 69//15 
f 51//15 70//16 69//15 
f 51//15 52//16 70//16 
f 52//16 71//17 70//16 
f 52//16 53//17 71//17 
f 53//17 72//18 71//17 
f 53//17 54//18 72//18 
f 54//18 73//19 72//18 
f 54//18 55//19 73//19 
f 55//19 57//2 73//19 
f 55//19 39//2 57//2 
f 57//2 74//3 75//2 
f 57//2 56//3 74//3 
f 56//3 76//4 74//3 
f 56//3 58//4 76//4 
f 58//4 77//5 76//4 
f 58//4 59//5 77//5 
f 59//5 78//6 77//5 
f 59//5 60//6 78//6 
f 60//6 79//7 78//6 
f 60//6 61//7 79//7 
f 61//7 80//8 79//7 
f 61//7 62//8 80//8 
f 62//8 81//9 80//8 
f 62//8 63//9 81//9 
f 63//9 82//10 81//9 
f 63//9 64//10 82//10 
f 64//10 83//11 82//10 
f 64//10 65//11 83//11 
f 65//11 84//12 83//11 
f 65//11 66//12 84//12 
f 66//12 85//13 84//12 
f 66//12 67//13 85//13 
f 67//13 86//14 85//13 
f 67//13 68//14 86//14 
f 68//14 87//15 86//14 
f 68//14 69//15 87//15 
f 69//15 88//16 87//15 
f 69//15 70//16 88//16 
f 70//16 89//17 88//16 
f 70//16 71//17 89//17 
f 71//17 90//18 89//17 
f 71//17 72//18 90//18 
f 72//18 91//19 90//18 
f 72//18 73//19 91//19 
f 73//19 75//2 91//19 
f 73//19 57//2 75//2 
f 75//2 92//3 93//2 
f 75//2 74//3 92//3 
f 74//3 94//4 92//3 
f 74//3 76//4 94//4 
f 76//4 95//5 94//4 
f 76//4 77//5 95//5 
f 77//5 96//6 95//5 
f 77//5 78//6 96//6 
f 78//6 97//7 96//6 
f 78//6 79//7 97//7 
f 79//7 98//8 97//7 
f 79//7 80//8 98//8 
f 80//8 99//9 98//8 
f 80//8 81//9 99//9 
f 81//9 100//10 99//9 
f 81//9 82//10 100//10 
f 82//10 101//11 100//10 
f 82//10 83//11 101//11 
f 83//11 102//12 101//11 
f 83//11 84//12 102//12 
f 84//12 103//13 102//12 
f 84//12 85//13 103//13 
f 85//13 104//14 103//13 
f 85//13 86//14 104//14 
f 86//14 105//15 104//14 
f 86//14 87//15 105//15 
f 87//15 106//16 105//15 
f 87//15 88//16 106//16 
f 88//16 107//17 106//16 
f 88//16 89//17 107//17 
f 89//17 108//18 107//17 
f 89//17 90//18 108//18 
f 90//18 109//19 108//18 
f 90//18 91//19 109//19 
f 91//19 93//2 109//19 
f 91//19 75//2 93//2 
s 1
f 110//20 93//20 92//20 
f 110//20 92//20 94//20 
f 110//20 94//20 95//20 
f 110//20 95//20 96//20 
f 110//20 96//20 97//20 
f 110//20 97//20 98//20 
f 110//20 98//20 99//20 
f 110//20 99//20 100//20 
f 110//20 100//20 101//20 
f 110//20 101//20 102//20 
f 110//20 102//20 103//20 
f 110//20 103//20 104//20 
f 110//20 104//20 105//20 
f 110//20 105//20 106//20 
f 110//20 106//20 107//20 
f 110//20 107//20 108//20 
f 110//20 108//20 109//20 
f 110//20 109//20 93//20 
# 216 faces

