# 3ds Max Wavefront OBJ Exporter v0.97b - (c)2007 guruware
# 创建的文件:29.03.2017 01:42:15

mtllib yuanzu.mtl

#
# object Cylinder001
#

v  0.000 0.000 -0.000
v  68.516 0.000 -30.505
v  75.000 0.000 -0.000
v  50.185 0.000 -55.736
v  23.176 0.000 -71.329
v  -7.840 0.000 -74.589
v  -37.500 0.000 -64.952
v  -60.676 0.000 -44.084
v  -73.361 0.000 -15.593
v  -73.361 0.000 15.593
v  -60.676 0.000 44.084
v  -37.500 0.000 64.952
v  -7.840 0.000 74.589
v  23.176 0.000 71.329
v  50.185 0.000 55.736
v  68.516 0.000 30.505
v  68.516 200.000 -30.505
v  75.000 200.000 -0.000
v  50.185 200.000 -55.736
v  23.176 200.000 -71.329
v  -7.840 200.000 -74.589
v  -37.500 200.000 -64.952
v  -60.676 200.000 -44.084
v  -73.361 200.000 -15.593
v  -73.361 200.000 15.593
v  -60.676 200.000 44.084
v  -37.500 200.000 64.952
v  -7.840 200.000 74.589
v  23.176 200.000 71.329
v  50.185 200.000 55.736
v  68.516 200.000 30.505
v  0.000 200.000 -0.000
# 32 vertices

vn 0.000 -1.000 -0.000
vn 1.000 0.000 -0.000
vn 0.914 0.000 -0.407
vn 0.669 0.000 -0.743
vn 0.309 0.000 -0.951
vn -0.105 0.000 -0.995
vn -0.500 0.000 -0.866
vn -0.809 0.000 -0.588
vn -0.978 0.000 -0.208
vn -0.978 0.000 0.208
vn -0.809 0.000 0.588
vn -0.500 0.000 0.866
vn -0.105 0.000 0.995
vn 0.309 0.000 0.951
vn 0.669 0.000 0.743
vn 0.914 0.000 0.407
vn 0.000 1.000 -0.000
# 17 vertex normals

g Cylinder001
usemtl wire_143225087
s 1
f 1//1 2//1 3//1 
f 1//1 4//1 2//1 
f 1//1 5//1 4//1 
f 1//1 6//1 5//1 
f 1//1 7//1 6//1 
f 1//1 8//1 7//1 
f 1//1 9//1 8//1 
f 1//1 10//1 9//1 
f 1//1 11//1 10//1 
f 1//1 12//1 11//1 
f 1//1 13//1 12//1 
f 1//1 14//1 13//1 
f 1//1 15//1 14//1 
f 1//1 16//1 15//1 
f 1//1 3//1 16//1 
s 8
f 3//2 17//3 18//2 
f 3//2 2//3 17//3 
f 2//3 19//4 17//3 
f 2//3 4//4 19//4 
f 4//4 20//5 19//4 
f 4//4 5//5 20//5 
f 5//5 21//6 20//5 
f 5//5 6//6 21//6 
f 6//6 22//7 21//6 
f 6//6 7//7 22//7 
f 7//7 23//8 22//7 
f 7//7 8//8 23//8 
f 8//8 24//9 23//8 
f 8//8 9//9 24//9 
f 9//9 25//10 24//9 
f 9//9 10//10 25//10 
f 10//10 26//11 25//10 
f 10//10 11//11 26//11 
f 11//11 27//12 26//11 
f 11//11 12//12 27//12 
f 12//12 28//13 27//12 
f 12//12 13//13 28//13 
f 13//13 29//14 28//13 
f 13//13 14//14 29//14 
f 14//14 30//15 29//14 
f 14//14 15//15 30//15 
f 15//15 31//16 30//15 
f 15//15 16//16 31//16 
f 16//16 18//2 31//16 
f 16//16 3//2 18//2 
s 1
f 32//17 18//17 17//17 
f 32//17 17//17 19//17 
f 32//17 19//17 20//17 
f 32//17 20//17 21//17 
f 32//17 21//17 22//17 
f 32//17 22//17 23//17 
f 32//17 23//17 24//17 
f 32//17 24//17 25//17 
f 32//17 25//17 26//17 
f 32//17 26//17 27//17 
f 32//17 27//17 28//17 
f 32//17 28//17 29//17 
f 32//17 29//17 30//17 
f 32//17 30//17 31//17 
f 32//17 31//17 18//17 
# 60 faces

